<?xml version="1.0" encoding="utf-8"?>
<!-- Generator: Adobe Illustrator 19.2.0, SVG Export Plug-In . SVG Version: 6.00 Build 0)  -->
<svg version="1.1" id="Layer_1" xmlns="http://www.w3.org/2000/svg" xmlns:xlink="http://www.w3.org/1999/xlink" x="0px" y="0px"
	 viewBox="0 0 24 24" style="enable-background:new 0 0 24 24;" xml:space="preserve">
<style type="text/css">
	.st0{fill:#212120;}
	.st1{fill:#FFFFFF;}
</style>
<g>
	<path id="Shape" class="st0" d="M1.6,0.2H9c0.8,0,1.5,0.7,1.5,1.5V9c0,0.8-0.7,1.5-1.5,1.5H1.6c-0.8,0-1.5-0.7-1.5-1.5V1.6
		C0.2,0.8,0.8,0.2,1.6,0.2z M1.6,9H9V1.6H1.6V9z"/>
	<path id="Shape_1_" class="st0" d="M15,0.2h7.4c0.8,0,1.5,0.7,1.5,1.5V9c0,0.8-0.7,1.5-1.5,1.5H15c-0.8,0-1.5-0.7-1.5-1.5V1.6
		C13.5,0.8,14.1,0.2,15,0.2z M15,9h7.4V1.6H15V9z"/>
	<path id="Shape_2_" class="st0" d="M1.6,13.5H9c0.8,0,1.5,0.7,1.5,1.5v7.4c0,0.8-0.7,1.5-1.5,1.5H1.6c-0.8,0-1.5-0.7-1.5-1.5V15
		C0.2,14.1,0.8,13.5,1.6,13.5z M1.6,22.4H9V15H1.6V22.4z"/>
	<path class="st0" d="M23.5,15.2h-9l-0.1-1.5c0-0.2-0.2-0.4-0.5-0.4h-1c-0.3,0-0.5,0.2-0.5,0.5c0,0.3,0.2,0.5,0.5,0.5h0.5
		c0.3,3.2-0.5-5.1,0.5,6.1c0,0.4,0.3,0.9,0.7,1.2c-0.7,0.9-0.1,2.3,1.1,2.3c1,0,1.7-1,1.4-1.9h2.6c-0.3,0.9,0.4,1.9,1.4,1.9
		c0.8,0,1.4-0.6,1.4-1.4c0-0.8-0.6-1.4-1.4-1.4h-5.3c-0.4,0-0.7-0.2-0.8-0.5l7.6-0.4c0.2,0,0.4-0.2,0.4-0.4l1-3.9
		C24.1,15.5,23.8,15.2,23.5,15.2L23.5,15.2z"/>
	<circle class="st1" cx="15.8" cy="22.4" r="0.5"/>
	<circle class="st1" cx="21.1" cy="22.4" r="0.5"/>
	<polygon class="st1" points="22.2,19.1 14.9,19.5 14.6,16.2 22.9,16.2 	"/>
</g>
</svg>
