<?xml version="1.0" encoding="utf-8"?>
<!-- Generator: Adobe Illustrator 19.2.0, SVG Export Plug-In . SVG Version: 6.00 Build 0)  -->
<svg version="1.1" id="Layer_1" xmlns="http://www.w3.org/2000/svg" xmlns:xlink="http://www.w3.org/1999/xlink" x="0px" y="0px"
	 viewBox="0 0 24 24" style="enable-background:new 0 0 24 24;" xml:space="preserve">
<style type="text/css">
	.st0{fill:#212120;}
</style>
<g id="Grid">
	<path class="st0" d="M9.1,0.2H1.7c-0.8,0-1.5,0.7-1.5,1.5V9c0,0.8,0.7,1.5,1.5,1.5H9c0.8,0,1.5-0.7,1.5-1.5V1.7
		C10.5,0.9,9.9,0.2,9.1,0.2z M9.1,9.1H1.7V1.7H9v7.4H9.1z"/>
	<path class="st0" d="M22.3,0.2H15c-0.8,0-1.5,0.7-1.5,1.5V9c0,0.8,0.7,1.5,1.5,1.5h7.3c0.8,0,1.5-0.7,1.5-1.5V1.7
		C23.8,0.9,23.1,0.2,22.3,0.2z M22.3,9.1H15V1.7h7.3V9.1z"/>
	<path class="st0" d="M22.3,13.5H15c-0.8,0-1.5,0.7-1.5,1.5v7.3c0,0.8,0.7,1.5,1.5,1.5h7.3c0.8,0,1.5-0.7,1.5-1.5V15
		C23.8,14.1,23.1,13.5,22.3,13.5z M22.3,22.3H15V15h7.3V22.3z"/>
	<path class="st0" d="M9.1,13.5H1.7c-0.8,0-1.5,0.7-1.5,1.5v7.3c0,0.8,0.7,1.5,1.5,1.5H9c0.8,0,1.5-0.7,1.5-1.5V15
		C10.5,14.1,9.9,13.5,9.1,13.5z M9.1,22.3H1.7V15H9v7.3H9.1z"/>
</g>
</svg>
