<?xml version="1.0" encoding="utf-8"?>
<!-- Generator: Adobe Illustrator 19.2.0, SVG Export Plug-In . SVG Version: 6.00 Build 0)  -->
<svg version="1.1" id="Layer_1" xmlns="http://www.w3.org/2000/svg" xmlns:xlink="http://www.w3.org/1999/xlink" x="0px" y="0px"
	 viewBox="0 0 24 24" style="enable-background:new 0 0 24 24;" xml:space="preserve">
<style type="text/css">
	.st0{fill:#212120;}
	.st1{fill:#FFFFFF;}
</style>
<g>
	<path id="Shape" class="st0" d="M1.6,0.2H9c0.8,0,1.5,0.7,1.5,1.5V9c0,0.8-0.7,1.5-1.5,1.5H1.6c-0.8,0-1.5-0.7-1.5-1.5V1.6
		C0.2,0.8,0.8,0.2,1.6,0.2z M1.6,9H9V1.6H1.6V9z"/>
	<path id="Shape_1_" class="st0" d="M15,0.2h7.4c0.8,0,1.5,0.7,1.5,1.5V9c0,0.8-0.7,1.5-1.5,1.5H15c-0.8,0-1.5-0.7-1.5-1.5V1.6
		C13.5,0.8,14.1,0.2,15,0.2z M15,9h7.4V1.6H15V9z"/>
	<path id="Shape_2_" class="st0" d="M1.6,13.5H9c0.8,0,1.5,0.7,1.5,1.5v7.4c0,0.8-0.7,1.5-1.5,1.5H1.6c-0.8,0-1.5-0.7-1.5-1.5V15
		C0.2,14.1,0.8,13.5,1.6,13.5z M1.6,22.4H9V15H1.6V22.4z"/>
	<g>
		<path class="st0" d="M13.5,14.6c0-0.6,0.5-1,1-1h8.2c0.6,0,1,0.5,1,1v8.2c0,0.6-0.5,1-1,1h-8.2c-0.6,0-1-0.5-1-1V14.6z"/>
		<path class="st1" d="M20.8,20.8h2.1v-6.2h-8.2v6.2h2.1c0,0.6,0.5,1,1,1h2.1C20.3,21.8,20.8,21.3,20.8,20.8z"/>
		<polygon class="st0" points="18.2,17.7 18.2,16.1 19.2,16.1 19.2,17.7 20.8,17.7 18.7,19.7 16.6,17.7 		"/>
	</g>
</g>
</svg>
